<mxfile host="app.diagrams.net" modified="2023-10-27T22:42:16.250Z" agent="Mozilla/5.0 (Windows NT 10.0; Win64; x64) AppleWebKit/537.36 (KHTML, like Gecko) Chrome/118.0.0.0 Safari/537.36 Edg/118.0.2088.69" etag="vzSs2ZyCoyUgxYLK9kpO" version="22.0.8" type="device">
  <diagram name="Page-1" id="R_n3ntmmA2Xk6lnbGDkk">
    <mxGraphModel dx="2295" dy="1164" grid="0" gridSize="10" guides="1" tooltips="1" connect="1" arrows="1" fold="1" page="0" pageScale="1" pageWidth="850" pageHeight="1100" background="#17141a" math="0" shadow="0">
      <root>
        <mxCell id="0" />
        <mxCell id="1" parent="0" />
        <mxCell id="VHmfQ2xXBK9ZEP8sxJjX-1" value="Company" style="rounded=0;whiteSpace=wrap;html=1;fontSize=14;" parent="1" vertex="1">
          <mxGeometry x="360" y="160" width="130" height="60" as="geometry" />
        </mxCell>
        <mxCell id="VHmfQ2xXBK9ZEP8sxJjX-6" value="" style="endArrow=none;html=1;entryX=0.5;entryY=1;entryDx=0;entryDy=0;exitX=0.25;exitY=0;exitDx=0;exitDy=0;" parent="1" source="VHmfQ2xXBK9ZEP8sxJjX-1" target="VHmfQ2xXBK9ZEP8sxJjX-154" edge="1">
          <mxGeometry width="50" height="50" relative="1" as="geometry">
            <mxPoint x="410" y="130" as="sourcePoint" />
            <mxPoint x="390" y="90" as="targetPoint" />
          </mxGeometry>
        </mxCell>
        <mxCell id="VHmfQ2xXBK9ZEP8sxJjX-7" value="" style="endArrow=none;html=1;entryX=0.5;entryY=1;entryDx=0;entryDy=0;exitX=0.778;exitY=-0.012;exitDx=0;exitDy=0;exitPerimeter=0;" parent="1" source="VHmfQ2xXBK9ZEP8sxJjX-1" target="VHmfQ2xXBK9ZEP8sxJjX-155" edge="1">
          <mxGeometry width="50" height="50" relative="1" as="geometry">
            <mxPoint x="430" y="120" as="sourcePoint" />
            <mxPoint x="460" y="90" as="targetPoint" />
          </mxGeometry>
        </mxCell>
        <mxCell id="VHmfQ2xXBK9ZEP8sxJjX-8" value="" style="endArrow=none;html=1;exitX=1;exitY=0;exitDx=0;exitDy=0;" parent="1" source="VHmfQ2xXBK9ZEP8sxJjX-1" target="VHmfQ2xXBK9ZEP8sxJjX-158" edge="1">
          <mxGeometry width="50" height="50" relative="1" as="geometry">
            <mxPoint x="445" y="140" as="sourcePoint" />
            <mxPoint x="519.9799999999999" y="101.61999999999995" as="targetPoint" />
          </mxGeometry>
        </mxCell>
        <mxCell id="VHmfQ2xXBK9ZEP8sxJjX-9" value="" style="endArrow=none;html=1;exitX=0.077;exitY=-0.006;exitDx=0;exitDy=0;exitPerimeter=0;" parent="1" source="VHmfQ2xXBK9ZEP8sxJjX-1" target="VHmfQ2xXBK9ZEP8sxJjX-95" edge="1">
          <mxGeometry width="50" height="50" relative="1" as="geometry">
            <mxPoint x="379" y="156" as="sourcePoint" />
            <mxPoint x="310" y="100" as="targetPoint" />
          </mxGeometry>
        </mxCell>
        <mxCell id="VHmfQ2xXBK9ZEP8sxJjX-12" value="Distribution Branches" style="rounded=0;whiteSpace=wrap;html=1;fontSize=14;" parent="1" vertex="1">
          <mxGeometry x="-17" y="471.5" width="130" height="60" as="geometry" />
        </mxCell>
        <mxCell id="VHmfQ2xXBK9ZEP8sxJjX-16" value="" style="endArrow=none;html=1;entryX=0.5;entryY=1;entryDx=0;entryDy=0;exitX=0.25;exitY=0;exitDx=0;exitDy=0;" parent="1" source="VHmfQ2xXBK9ZEP8sxJjX-12" target="VHmfQ2xXBK9ZEP8sxJjX-131" edge="1">
          <mxGeometry width="50" height="50" relative="1" as="geometry">
            <mxPoint x="33" y="451.5" as="sourcePoint" />
            <mxPoint x="13" y="411.5" as="targetPoint" />
          </mxGeometry>
        </mxCell>
        <mxCell id="VHmfQ2xXBK9ZEP8sxJjX-17" value="" style="endArrow=none;html=1;entryX=0.5;entryY=1;entryDx=0;entryDy=0;exitX=0.778;exitY=-0.012;exitDx=0;exitDy=0;exitPerimeter=0;" parent="1" source="VHmfQ2xXBK9ZEP8sxJjX-12" target="VHmfQ2xXBK9ZEP8sxJjX-135" edge="1">
          <mxGeometry width="50" height="50" relative="1" as="geometry">
            <mxPoint x="53" y="441.5" as="sourcePoint" />
            <mxPoint x="83" y="411.5" as="targetPoint" />
          </mxGeometry>
        </mxCell>
        <mxCell id="VHmfQ2xXBK9ZEP8sxJjX-18" value="" style="endArrow=none;html=1;entryX=0.5;entryY=1;entryDx=0;entryDy=0;exitX=1;exitY=0;exitDx=0;exitDy=0;" parent="1" source="VHmfQ2xXBK9ZEP8sxJjX-12" target="VHmfQ2xXBK9ZEP8sxJjX-137" edge="1">
          <mxGeometry width="50" height="50" relative="1" as="geometry">
            <mxPoint x="68" y="461.5" as="sourcePoint" />
            <mxPoint x="142.98000000000002" y="423.1199999999999" as="targetPoint" />
          </mxGeometry>
        </mxCell>
        <mxCell id="VHmfQ2xXBK9ZEP8sxJjX-19" value="" style="endArrow=none;html=1;exitX=0.077;exitY=-0.006;exitDx=0;exitDy=0;exitPerimeter=0;" parent="1" source="VHmfQ2xXBK9ZEP8sxJjX-12" target="VHmfQ2xXBK9ZEP8sxJjX-94" edge="1">
          <mxGeometry width="50" height="50" relative="1" as="geometry">
            <mxPoint x="2" y="477.5" as="sourcePoint" />
            <mxPoint x="-67" y="421.5" as="targetPoint" />
          </mxGeometry>
        </mxCell>
        <mxCell id="VHmfQ2xXBK9ZEP8sxJjX-22" value="Production Branches" style="rounded=0;whiteSpace=wrap;html=1;fontSize=14;" parent="1" vertex="1">
          <mxGeometry x="711" y="471.5" width="130" height="60" as="geometry" />
        </mxCell>
        <mxCell id="VHmfQ2xXBK9ZEP8sxJjX-26" value="" style="endArrow=none;html=1;entryX=0.5;entryY=1;entryDx=0;entryDy=0;exitX=0.25;exitY=0;exitDx=0;exitDy=0;" parent="1" source="VHmfQ2xXBK9ZEP8sxJjX-22" target="VHmfQ2xXBK9ZEP8sxJjX-139" edge="1">
          <mxGeometry width="50" height="50" relative="1" as="geometry">
            <mxPoint x="761" y="441.5" as="sourcePoint" />
            <mxPoint x="741" y="401.5" as="targetPoint" />
          </mxGeometry>
        </mxCell>
        <mxCell id="VHmfQ2xXBK9ZEP8sxJjX-27" value="" style="endArrow=none;html=1;exitX=0.778;exitY=-0.012;exitDx=0;exitDy=0;exitPerimeter=0;" parent="1" source="VHmfQ2xXBK9ZEP8sxJjX-22" target="VHmfQ2xXBK9ZEP8sxJjX-140" edge="1">
          <mxGeometry width="50" height="50" relative="1" as="geometry">
            <mxPoint x="781" y="431.5" as="sourcePoint" />
            <mxPoint x="811" y="401.5" as="targetPoint" />
          </mxGeometry>
        </mxCell>
        <mxCell id="VHmfQ2xXBK9ZEP8sxJjX-28" value="" style="endArrow=none;html=1;exitX=0;exitY=0;exitDx=0;exitDy=0;entryX=0.5;entryY=1;entryDx=0;entryDy=0;" parent="1" source="VHmfQ2xXBK9ZEP8sxJjX-22" target="VHmfQ2xXBK9ZEP8sxJjX-141" edge="1">
          <mxGeometry width="50" height="50" relative="1" as="geometry">
            <mxPoint x="841" y="301.5" as="sourcePoint" />
            <mxPoint x="651" y="411.5" as="targetPoint" />
          </mxGeometry>
        </mxCell>
        <mxCell id="VHmfQ2xXBK9ZEP8sxJjX-29" value="" style="endArrow=none;html=1;exitX=0.85;exitY=-0.004;exitDx=0;exitDy=0;exitPerimeter=0;entryX=0.286;entryY=1.006;entryDx=0;entryDy=0;entryPerimeter=0;" parent="1" source="VHmfQ2xXBK9ZEP8sxJjX-22" target="VHmfQ2xXBK9ZEP8sxJjX-138" edge="1">
          <mxGeometry width="50" height="50" relative="1" as="geometry">
            <mxPoint x="631" y="441.5" as="sourcePoint" />
            <mxPoint x="896" y="391.5" as="targetPoint" />
          </mxGeometry>
        </mxCell>
        <mxCell id="VHmfQ2xXBK9ZEP8sxJjX-32" value="Productions" style="rounded=0;whiteSpace=wrap;html=1;fontSize=14;" parent="1" vertex="1">
          <mxGeometry x="766" y="672" width="130" height="60" as="geometry" />
        </mxCell>
        <mxCell id="VHmfQ2xXBK9ZEP8sxJjX-36" value="" style="endArrow=none;html=1;entryX=0.5;entryY=0;entryDx=0;entryDy=0;exitX=0.5;exitY=1;exitDx=0;exitDy=0;" parent="1" source="VHmfQ2xXBK9ZEP8sxJjX-32" target="VHmfQ2xXBK9ZEP8sxJjX-149" edge="1">
          <mxGeometry width="50" height="50" relative="1" as="geometry">
            <mxPoint x="776" y="712" as="sourcePoint" />
            <mxPoint x="767" y="837.76" as="targetPoint" />
          </mxGeometry>
        </mxCell>
        <mxCell id="VHmfQ2xXBK9ZEP8sxJjX-37" value="" style="endArrow=none;html=1;exitX=0.75;exitY=1;exitDx=0;exitDy=0;entryX=0.5;entryY=0;entryDx=0;entryDy=0;" parent="1" source="VHmfQ2xXBK9ZEP8sxJjX-32" edge="1" target="VHmfQ2xXBK9ZEP8sxJjX-151">
          <mxGeometry width="50" height="50" relative="1" as="geometry">
            <mxPoint x="826" y="742" as="sourcePoint" />
            <mxPoint x="841" y="860" as="targetPoint" />
          </mxGeometry>
        </mxCell>
        <mxCell id="VHmfQ2xXBK9ZEP8sxJjX-38" value="" style="endArrow=none;html=1;entryX=0.5;entryY=0;entryDx=0;entryDy=0;exitX=0.914;exitY=1.03;exitDx=0;exitDy=0;exitPerimeter=0;" parent="1" source="VHmfQ2xXBK9ZEP8sxJjX-32" target="VHmfQ2xXBK9ZEP8sxJjX-152" edge="1">
          <mxGeometry width="50" height="50" relative="1" as="geometry">
            <mxPoint x="811" y="722" as="sourcePoint" />
            <mxPoint x="916.2512626584585" y="822.2512626584585" as="targetPoint" />
          </mxGeometry>
        </mxCell>
        <mxCell id="VHmfQ2xXBK9ZEP8sxJjX-39" value="" style="endArrow=none;html=1;entryX=0.771;entryY=-0.081;entryDx=0;entryDy=0;exitX=0;exitY=0.75;exitDx=0;exitDy=0;entryPerimeter=0;" parent="1" source="VHmfQ2xXBK9ZEP8sxJjX-32" target="VHmfQ2xXBK9ZEP8sxJjX-91" edge="1">
          <mxGeometry width="50" height="50" relative="1" as="geometry">
            <mxPoint x="745" y="738" as="sourcePoint" />
            <mxPoint x="641" y="902.0000000000002" as="targetPoint" />
          </mxGeometry>
        </mxCell>
        <mxCell id="VHmfQ2xXBK9ZEP8sxJjX-54" value="Transactions" style="rounded=0;whiteSpace=wrap;html=1;fontSize=14;" parent="1" vertex="1">
          <mxGeometry x="-62" y="690" width="130" height="60" as="geometry" />
        </mxCell>
        <mxCell id="VHmfQ2xXBK9ZEP8sxJjX-58" value="" style="endArrow=none;html=1;exitX=0;exitY=1;exitDx=0;exitDy=0;entryX=1;entryY=0;entryDx=0;entryDy=0;" parent="1" source="VHmfQ2xXBK9ZEP8sxJjX-54" target="VHmfQ2xXBK9ZEP8sxJjX-143" edge="1">
          <mxGeometry width="50" height="50" relative="1" as="geometry">
            <mxPoint x="-12" y="660" as="sourcePoint" />
            <mxPoint x="-133.7157287525381" y="821.7157287525383" as="targetPoint" />
          </mxGeometry>
        </mxCell>
        <mxCell id="VHmfQ2xXBK9ZEP8sxJjX-59" value="" style="endArrow=none;html=1;entryX=0.5;entryY=0;entryDx=0;entryDy=0;" parent="1" target="VHmfQ2xXBK9ZEP8sxJjX-146" edge="1">
          <mxGeometry width="50" height="50" relative="1" as="geometry">
            <mxPoint x="28" y="750" as="sourcePoint" />
            <mxPoint x="28" y="810.0000000000002" as="targetPoint" />
          </mxGeometry>
        </mxCell>
        <mxCell id="VHmfQ2xXBK9ZEP8sxJjX-60" value="" style="endArrow=none;html=1;entryX=0.385;entryY=0.052;entryDx=0;entryDy=0;exitX=1;exitY=1;exitDx=0;exitDy=0;entryPerimeter=0;" parent="1" source="VHmfQ2xXBK9ZEP8sxJjX-54" target="VHmfQ2xXBK9ZEP8sxJjX-148" edge="1">
          <mxGeometry width="50" height="50" relative="1" as="geometry">
            <mxPoint x="23" y="670" as="sourcePoint" />
            <mxPoint x="99.98000000000002" y="820.7700000000002" as="targetPoint" />
          </mxGeometry>
        </mxCell>
        <mxCell id="VHmfQ2xXBK9ZEP8sxJjX-61" value="" style="endArrow=none;html=1;entryX=1;entryY=0.5;entryDx=0;entryDy=0;exitX=0;exitY=0.5;exitDx=0;exitDy=0;" parent="1" source="VHmfQ2xXBK9ZEP8sxJjX-54" target="VHmfQ2xXBK9ZEP8sxJjX-89" edge="1">
          <mxGeometry width="50" height="50" relative="1" as="geometry">
            <mxPoint x="-72" y="720" as="sourcePoint" />
            <mxPoint x="-142" y="739.9999999999998" as="targetPoint" />
          </mxGeometry>
        </mxCell>
        <mxCell id="VHmfQ2xXBK9ZEP8sxJjX-65" value="" style="endArrow=none;html=1;entryX=0.5;entryY=0;entryDx=0;entryDy=0;exitX=0.341;exitY=1.01;exitDx=0;exitDy=0;exitPerimeter=0;" parent="1" source="VHmfQ2xXBK9ZEP8sxJjX-54" target="VHmfQ2xXBK9ZEP8sxJjX-145" edge="1">
          <mxGeometry width="50" height="50" relative="1" as="geometry">
            <mxPoint x="-2" y="750" as="sourcePoint" />
            <mxPoint x="-52" y="813.7600000000002" as="targetPoint" />
          </mxGeometry>
        </mxCell>
        <mxCell id="VHmfQ2xXBK9ZEP8sxJjX-75" value="" style="endArrow=none;html=1;exitX=0;exitY=0;exitDx=0;exitDy=0;strokeWidth=2;entryX=1;entryY=0.5;entryDx=0;entryDy=0;" parent="1" target="VHmfQ2xXBK9ZEP8sxJjX-86" edge="1" source="VHmfQ2xXBK9ZEP8sxJjX-32">
          <mxGeometry width="50" height="50" relative="1" as="geometry">
            <mxPoint x="680" y="720" as="sourcePoint" />
            <mxPoint x="680" y="650" as="targetPoint" />
          </mxGeometry>
        </mxCell>
        <mxCell id="VHmfQ2xXBK9ZEP8sxJjX-76" value="" style="endArrow=none;html=1;entryX=0.5;entryY=1;entryDx=0;entryDy=0;exitX=0.5;exitY=0;exitDx=0;exitDy=0;strokeWidth=2;" parent="1" source="VHmfQ2xXBK9ZEP8sxJjX-86" target="VHmfQ2xXBK9ZEP8sxJjX-22" edge="1">
          <mxGeometry width="50" height="50" relative="1" as="geometry">
            <mxPoint x="675" y="579.9999999999998" as="sourcePoint" />
            <mxPoint x="330" y="629.41" as="targetPoint" />
          </mxGeometry>
        </mxCell>
        <mxCell id="VHmfQ2xXBK9ZEP8sxJjX-86" value="Operate" style="shape=rhombus;double=1;perimeter=rhombusPerimeter;whiteSpace=wrap;html=1;align=center;" parent="1" vertex="1">
          <mxGeometry x="615" y="590" width="120" height="60" as="geometry" />
        </mxCell>
        <mxCell id="VHmfQ2xXBK9ZEP8sxJjX-87" value="Operate" style="shape=rhombus;double=1;perimeter=rhombusPerimeter;whiteSpace=wrap;html=1;align=center;" parent="1" vertex="1">
          <mxGeometry x="218" y="534" width="120" height="60" as="geometry" />
        </mxCell>
        <mxCell id="VHmfQ2xXBK9ZEP8sxJjX-89" value="Id" style="ellipse;whiteSpace=wrap;html=1;align=center;fontStyle=4;" parent="1" vertex="1">
          <mxGeometry x="-257" y="690" width="70" height="40" as="geometry" />
        </mxCell>
        <mxCell id="VHmfQ2xXBK9ZEP8sxJjX-91" value="Id" style="ellipse;whiteSpace=wrap;html=1;align=center;fontStyle=4;" parent="1" vertex="1">
          <mxGeometry x="696" y="800" width="70" height="40" as="geometry" />
        </mxCell>
        <mxCell id="VHmfQ2xXBK9ZEP8sxJjX-94" value="Id" style="ellipse;whiteSpace=wrap;html=1;align=center;fontStyle=4;" parent="1" vertex="1">
          <mxGeometry x="-107" y="371.5" width="70" height="40" as="geometry" />
        </mxCell>
        <mxCell id="VHmfQ2xXBK9ZEP8sxJjX-95" value="Id" style="ellipse;whiteSpace=wrap;html=1;align=center;fontStyle=4;" parent="1" vertex="1">
          <mxGeometry x="260" y="50" width="70" height="40" as="geometry" />
        </mxCell>
        <mxCell id="VHmfQ2xXBK9ZEP8sxJjX-104" value="" style="endArrow=none;html=1;rounded=0;exitX=0.804;exitY=-0.004;exitDx=0;exitDy=0;exitPerimeter=0;entryX=0.5;entryY=1;entryDx=0;entryDy=0;strokeWidth=2;" parent="1" source="VHmfQ2xXBK9ZEP8sxJjX-54" target="VHmfQ2xXBK9ZEP8sxJjX-87" edge="1">
          <mxGeometry relative="1" as="geometry">
            <mxPoint x="340" y="670" as="sourcePoint" />
            <mxPoint x="500" y="670" as="targetPoint" />
          </mxGeometry>
        </mxCell>
        <mxCell id="VHmfQ2xXBK9ZEP8sxJjX-105" value="N" style="resizable=0;html=1;whiteSpace=wrap;align=right;verticalAlign=bottom;" parent="VHmfQ2xXBK9ZEP8sxJjX-104" connectable="0" vertex="1">
          <mxGeometry x="1" relative="1" as="geometry">
            <mxPoint y="26" as="offset" />
          </mxGeometry>
        </mxCell>
        <mxCell id="VHmfQ2xXBK9ZEP8sxJjX-107" value="" style="endArrow=none;html=1;rounded=0;exitX=1;exitY=0.5;exitDx=0;exitDy=0;entryX=0.25;entryY=1;entryDx=0;entryDy=0;strokeWidth=2;" parent="1" source="VHmfQ2xXBK9ZEP8sxJjX-120" target="VHmfQ2xXBK9ZEP8sxJjX-1" edge="1">
          <mxGeometry relative="1" as="geometry">
            <mxPoint x="360.00000000000017" y="288.98" as="sourcePoint" />
            <mxPoint x="436.93" y="370.0000000000002" as="targetPoint" />
          </mxGeometry>
        </mxCell>
        <mxCell id="VHmfQ2xXBK9ZEP8sxJjX-108" value="1" style="resizable=0;html=1;whiteSpace=wrap;align=right;verticalAlign=bottom;" parent="VHmfQ2xXBK9ZEP8sxJjX-107" connectable="0" vertex="1">
          <mxGeometry x="1" relative="1" as="geometry">
            <mxPoint x="-42" y="72" as="offset" />
          </mxGeometry>
        </mxCell>
        <mxCell id="VHmfQ2xXBK9ZEP8sxJjX-109" value="" style="endArrow=none;html=1;rounded=0;exitX=0.064;exitY=0.997;exitDx=0;exitDy=0;exitPerimeter=0;entryX=1;entryY=0.5;entryDx=0;entryDy=0;strokeWidth=2;" parent="1" source="VHmfQ2xXBK9ZEP8sxJjX-22" target="VHmfQ2xXBK9ZEP8sxJjX-87" edge="1">
          <mxGeometry relative="1" as="geometry">
            <mxPoint x="203" y="549" as="sourcePoint" />
            <mxPoint x="280" y="630" as="targetPoint" />
          </mxGeometry>
        </mxCell>
        <mxCell id="VHmfQ2xXBK9ZEP8sxJjX-110" value="1" style="resizable=0;html=1;whiteSpace=wrap;align=right;verticalAlign=bottom;" parent="VHmfQ2xXBK9ZEP8sxJjX-109" connectable="0" vertex="1">
          <mxGeometry x="1" relative="1" as="geometry">
            <mxPoint x="10" as="offset" />
          </mxGeometry>
        </mxCell>
        <mxCell id="VHmfQ2xXBK9ZEP8sxJjX-115" value="" style="endArrow=none;html=1;rounded=0;exitX=0.75;exitY=0;exitDx=0;exitDy=0;entryX=0.465;entryY=0.952;entryDx=0;entryDy=0;strokeWidth=2;entryPerimeter=0;" parent="1" source="VHmfQ2xXBK9ZEP8sxJjX-54" target="VHmfQ2xXBK9ZEP8sxJjX-87" edge="1">
          <mxGeometry relative="1" as="geometry">
            <mxPoint x="298" y="726" as="sourcePoint" />
            <mxPoint x="340" y="660" as="targetPoint" />
          </mxGeometry>
        </mxCell>
        <mxCell id="VHmfQ2xXBK9ZEP8sxJjX-117" value="" style="endArrow=none;html=1;rounded=0;exitX=0;exitY=0.25;exitDx=0;exitDy=0;entryX=0.961;entryY=0.617;entryDx=0;entryDy=0;strokeWidth=2;entryPerimeter=0;" parent="1" edge="1" target="VHmfQ2xXBK9ZEP8sxJjX-86" source="VHmfQ2xXBK9ZEP8sxJjX-32">
          <mxGeometry relative="1" as="geometry">
            <mxPoint x="674.23" y="718.6800000000002" as="sourcePoint" />
            <mxPoint x="675.4900000000002" y="643.9999999999999" as="targetPoint" />
          </mxGeometry>
        </mxCell>
        <mxCell id="VHmfQ2xXBK9ZEP8sxJjX-118" value="N" style="resizable=0;html=1;whiteSpace=wrap;align=right;verticalAlign=bottom;" parent="VHmfQ2xXBK9ZEP8sxJjX-117" connectable="0" vertex="1">
          <mxGeometry x="1" relative="1" as="geometry">
            <mxPoint x="-9" y="19" as="offset" />
          </mxGeometry>
        </mxCell>
        <mxCell id="VHmfQ2xXBK9ZEP8sxJjX-119" value="1" style="resizable=0;html=1;whiteSpace=wrap;align=right;verticalAlign=bottom;" parent="VHmfQ2xXBK9ZEP8sxJjX-117" connectable="0" vertex="1">
          <mxGeometry x="1" relative="1" as="geometry">
            <mxPoint x="-49" y="-41" as="offset" />
          </mxGeometry>
        </mxCell>
        <mxCell id="VHmfQ2xXBK9ZEP8sxJjX-120" value="Has" style="shape=rhombus;double=1;perimeter=rhombusPerimeter;whiteSpace=wrap;html=1;align=center;rotation=-60;" parent="1" vertex="1">
          <mxGeometry x="266" y="321" width="120" height="60" as="geometry" />
        </mxCell>
        <mxCell id="VHmfQ2xXBK9ZEP8sxJjX-121" value="Has" style="shape=rhombus;double=1;perimeter=rhombusPerimeter;whiteSpace=wrap;html=1;align=center;rotation=-100;" parent="1" vertex="1">
          <mxGeometry x="450" y="321" width="120" height="60" as="geometry" />
        </mxCell>
        <mxCell id="VHmfQ2xXBK9ZEP8sxJjX-122" value="" style="endArrow=none;html=1;rounded=0;exitX=1;exitY=0.5;exitDx=0;exitDy=0;strokeWidth=2;entryX=0.895;entryY=1.072;entryDx=0;entryDy=0;entryPerimeter=0;" parent="1" source="VHmfQ2xXBK9ZEP8sxJjX-121" target="VHmfQ2xXBK9ZEP8sxJjX-1" edge="1">
          <mxGeometry relative="1" as="geometry">
            <mxPoint x="375" y="310" as="sourcePoint" />
            <mxPoint x="403" y="230" as="targetPoint" />
          </mxGeometry>
        </mxCell>
        <mxCell id="VHmfQ2xXBK9ZEP8sxJjX-123" value="1" style="resizable=0;html=1;whiteSpace=wrap;align=right;verticalAlign=bottom;" parent="VHmfQ2xXBK9ZEP8sxJjX-122" connectable="0" vertex="1">
          <mxGeometry x="1" relative="1" as="geometry">
            <mxPoint x="26" y="78" as="offset" />
          </mxGeometry>
        </mxCell>
        <mxCell id="VHmfQ2xXBK9ZEP8sxJjX-124" value="" style="endArrow=none;html=1;rounded=0;exitX=1;exitY=0.75;exitDx=0;exitDy=0;entryX=0;entryY=0.5;entryDx=0;entryDy=0;strokeWidth=2;" parent="1" source="VHmfQ2xXBK9ZEP8sxJjX-12" target="VHmfQ2xXBK9ZEP8sxJjX-120" edge="1">
          <mxGeometry relative="1" as="geometry">
            <mxPoint x="375" y="310" as="sourcePoint" />
            <mxPoint x="403" y="230" as="targetPoint" />
          </mxGeometry>
        </mxCell>
        <mxCell id="VHmfQ2xXBK9ZEP8sxJjX-126" value="" style="endArrow=none;html=1;rounded=0;exitX=0;exitY=0.75;exitDx=0;exitDy=0;strokeWidth=2;entryX=0;entryY=0.5;entryDx=0;entryDy=0;" parent="1" source="VHmfQ2xXBK9ZEP8sxJjX-22" target="VHmfQ2xXBK9ZEP8sxJjX-121" edge="1">
          <mxGeometry relative="1" as="geometry">
            <mxPoint x="340" y="525" as="sourcePoint" />
            <mxPoint x="450" y="430" as="targetPoint" />
          </mxGeometry>
        </mxCell>
        <mxCell id="VHmfQ2xXBK9ZEP8sxJjX-127" value="N" style="resizable=0;html=1;whiteSpace=wrap;align=right;verticalAlign=bottom;" parent="VHmfQ2xXBK9ZEP8sxJjX-126" connectable="0" vertex="1">
          <mxGeometry x="1" relative="1" as="geometry">
            <mxPoint x="120" y="100" as="offset" />
          </mxGeometry>
        </mxCell>
        <mxCell id="VHmfQ2xXBK9ZEP8sxJjX-128" value="" style="endArrow=none;html=1;rounded=0;exitX=1;exitY=0.5;exitDx=0;exitDy=0;strokeWidth=2;entryX=0.119;entryY=0.406;entryDx=0;entryDy=0;entryPerimeter=0;" parent="1" edge="1" target="VHmfQ2xXBK9ZEP8sxJjX-120" source="VHmfQ2xXBK9ZEP8sxJjX-12">
          <mxGeometry relative="1" as="geometry">
            <mxPoint x="240" y="505" as="sourcePoint" />
            <mxPoint x="360" y="410" as="targetPoint" />
          </mxGeometry>
        </mxCell>
        <mxCell id="VHmfQ2xXBK9ZEP8sxJjX-129" value="N" style="resizable=0;html=1;whiteSpace=wrap;align=right;verticalAlign=bottom;" parent="VHmfQ2xXBK9ZEP8sxJjX-128" connectable="0" vertex="1">
          <mxGeometry x="1" relative="1" as="geometry">
            <mxPoint x="-6" y="-4" as="offset" />
          </mxGeometry>
        </mxCell>
        <mxCell id="VHmfQ2xXBK9ZEP8sxJjX-130" value="" style="endArrow=none;html=1;rounded=0;exitX=0;exitY=0.5;exitDx=0;exitDy=0;strokeWidth=2;entryX=0.082;entryY=0.64;entryDx=0;entryDy=0;entryPerimeter=0;" parent="1" source="VHmfQ2xXBK9ZEP8sxJjX-22" target="VHmfQ2xXBK9ZEP8sxJjX-121" edge="1">
          <mxGeometry relative="1" as="geometry">
            <mxPoint x="250" y="535" as="sourcePoint" />
            <mxPoint x="460" y="410" as="targetPoint" />
          </mxGeometry>
        </mxCell>
        <mxCell id="VHmfQ2xXBK9ZEP8sxJjX-131" value="Name" style="ellipse;whiteSpace=wrap;html=1;align=center;" parent="1" vertex="1">
          <mxGeometry x="-29" y="358.5" width="73" height="33" as="geometry" />
        </mxCell>
        <mxCell id="VHmfQ2xXBK9ZEP8sxJjX-133" value="" style="endArrow=none;html=1;rounded=0;exitX=0.592;exitY=1.046;exitDx=0;exitDy=0;exitPerimeter=0;entryX=0;entryY=0.5;entryDx=0;entryDy=0;strokeWidth=2;" parent="1" source="VHmfQ2xXBK9ZEP8sxJjX-12" target="VHmfQ2xXBK9ZEP8sxJjX-87" edge="1">
          <mxGeometry relative="1" as="geometry">
            <mxPoint x="628" y="550" as="sourcePoint" />
            <mxPoint x="400" y="630" as="targetPoint" />
          </mxGeometry>
        </mxCell>
        <mxCell id="VHmfQ2xXBK9ZEP8sxJjX-134" value="1" style="resizable=0;html=1;whiteSpace=wrap;align=right;verticalAlign=bottom;" parent="VHmfQ2xXBK9ZEP8sxJjX-133" connectable="0" vertex="1">
          <mxGeometry x="1" relative="1" as="geometry">
            <mxPoint x="2" y="-8" as="offset" />
          </mxGeometry>
        </mxCell>
        <mxCell id="MFu_wgSmOD_PK2hefFo5-55" value="1" style="resizable=0;html=1;whiteSpace=wrap;align=right;verticalAlign=bottom;" connectable="0" vertex="1" parent="VHmfQ2xXBK9ZEP8sxJjX-133">
          <mxGeometry x="1" relative="1" as="geometry">
            <mxPoint x="-42" y="171" as="offset" />
          </mxGeometry>
        </mxCell>
        <mxCell id="VHmfQ2xXBK9ZEP8sxJjX-135" value="Address" style="ellipse;whiteSpace=wrap;html=1;align=center;" parent="1" vertex="1">
          <mxGeometry x="50" y="355" width="73" height="33" as="geometry" />
        </mxCell>
        <mxCell id="VHmfQ2xXBK9ZEP8sxJjX-137" value="Company&amp;nbsp;&lt;br&gt;Id" style="ellipse;whiteSpace=wrap;html=1;align=center;" parent="1" vertex="1">
          <mxGeometry x="117" y="375" width="80" height="38.5" as="geometry" />
        </mxCell>
        <mxCell id="VHmfQ2xXBK9ZEP8sxJjX-138" value="Id" style="ellipse;whiteSpace=wrap;html=1;align=center;fontStyle=4;" parent="1" vertex="1">
          <mxGeometry x="865" y="355" width="70" height="40" as="geometry" />
        </mxCell>
        <mxCell id="VHmfQ2xXBK9ZEP8sxJjX-139" value="Name" style="ellipse;whiteSpace=wrap;html=1;align=center;" parent="1" vertex="1">
          <mxGeometry x="702" y="350.5" width="73" height="33" as="geometry" />
        </mxCell>
        <mxCell id="VHmfQ2xXBK9ZEP8sxJjX-140" value="Address" style="ellipse;whiteSpace=wrap;html=1;align=center;" parent="1" vertex="1">
          <mxGeometry x="782" y="350.5" width="73" height="33" as="geometry" />
        </mxCell>
        <mxCell id="VHmfQ2xXBK9ZEP8sxJjX-141" value="Company&amp;nbsp;&lt;br&gt;Id" style="ellipse;whiteSpace=wrap;html=1;align=center;" parent="1" vertex="1">
          <mxGeometry x="619" y="356.5" width="80" height="38.5" as="geometry" />
        </mxCell>
        <mxCell id="VHmfQ2xXBK9ZEP8sxJjX-143" value="Production&lt;br data-darkreader-inline-border=&quot;&quot; style=&quot;border-color: var(--darkreader-border--border-color); --darkreader-inline-border: var(--darkreader-border--darkreader-border--border-color);&quot;&gt;Branch&amp;nbsp;&lt;br data-darkreader-inline-border=&quot;&quot; style=&quot;border-color: var(--darkreader-border--border-color); --darkreader-inline-border: var(--darkreader-border--darkreader-border--border-color);&quot;&gt;Id" style="ellipse;whiteSpace=wrap;html=1;align=center;" parent="1" vertex="1">
          <mxGeometry x="-211" y="817" width="91" height="53" as="geometry" />
        </mxCell>
        <mxCell id="VHmfQ2xXBK9ZEP8sxJjX-145" value="Distribution&lt;br data-darkreader-inline-border=&quot;&quot; style=&quot;border-color: var(--darkreader-border--border-color); --darkreader-inline-border: var(--darkreader-border--darkreader-border--border-color);&quot;&gt;Branch&amp;nbsp;&lt;br data-darkreader-inline-border=&quot;&quot; style=&quot;border-color: var(--darkreader-border--border-color); --darkreader-inline-border: var(--darkreader-border--darkreader-border--border-color);&quot;&gt;Id" style="ellipse;whiteSpace=wrap;html=1;align=center;" parent="1" vertex="1">
          <mxGeometry x="-112.5" y="830" width="91" height="53" as="geometry" />
        </mxCell>
        <mxCell id="VHmfQ2xXBK9ZEP8sxJjX-146" value="Transaction&lt;br data-darkreader-inline-border=&quot;&quot; style=&quot;border-color: var(--darkreader-border--border-color); --darkreader-inline-border: var(--darkreader-border--darkreader-border--border-color);&quot;&gt;Date" style="ellipse;whiteSpace=wrap;html=1;align=center;" parent="1" vertex="1">
          <mxGeometry x="-21.5" y="837" width="91" height="53" as="geometry" />
        </mxCell>
        <mxCell id="VHmfQ2xXBK9ZEP8sxJjX-148" value="Quantiity" style="ellipse;whiteSpace=wrap;html=1;align=center;" parent="1" vertex="1">
          <mxGeometry x="72" y="824" width="91" height="53" as="geometry" />
        </mxCell>
        <mxCell id="VHmfQ2xXBK9ZEP8sxJjX-149" value="Production&lt;br data-darkreader-inline-border=&quot;&quot; style=&quot;border-color: var(--darkreader-border--border-color); --darkreader-inline-border: var(--darkreader-border--darkreader-border--border-color);&quot;&gt;Branch&amp;nbsp;&lt;br data-darkreader-inline-border=&quot;&quot; style=&quot;border-color: var(--darkreader-border--border-color); --darkreader-inline-border: var(--darkreader-border--darkreader-border--border-color);&quot;&gt;Id" style="ellipse;whiteSpace=wrap;html=1;align=center;" parent="1" vertex="1">
          <mxGeometry x="823" y="871.5" width="91" height="53" as="geometry" />
        </mxCell>
        <mxCell id="VHmfQ2xXBK9ZEP8sxJjX-151" value="Production&lt;br data-darkreader-inline-border=&quot;&quot; style=&quot;border-color: var(--darkreader-border--border-color); --darkreader-inline-border: var(--darkreader-border--darkreader-border--border-color);&quot;&gt;Date" style="ellipse;whiteSpace=wrap;html=1;align=center;" parent="1" vertex="1">
          <mxGeometry x="923" y="871.5" width="91" height="53" as="geometry" />
        </mxCell>
        <mxCell id="VHmfQ2xXBK9ZEP8sxJjX-152" value="Quantiity" style="ellipse;whiteSpace=wrap;html=1;align=center;" parent="1" vertex="1">
          <mxGeometry x="1019" y="866" width="91" height="53" as="geometry" />
        </mxCell>
        <mxCell id="VHmfQ2xXBK9ZEP8sxJjX-154" value="Name" style="ellipse;whiteSpace=wrap;html=1;align=center;" parent="1" vertex="1">
          <mxGeometry x="340" y="43.5" width="73" height="33" as="geometry" />
        </mxCell>
        <mxCell id="VHmfQ2xXBK9ZEP8sxJjX-155" value="Activity" style="ellipse;whiteSpace=wrap;html=1;align=center;" parent="1" vertex="1">
          <mxGeometry x="423" y="43.5" width="73" height="33" as="geometry" />
        </mxCell>
        <mxCell id="VHmfQ2xXBK9ZEP8sxJjX-158" value="Founding&lt;br data-darkreader-inline-border=&quot;&quot; style=&quot;border-color: var(--darkreader-border--border-color); --darkreader-inline-border: var(--darkreader-border--darkreader-border--border-color);&quot;&gt;Date" style="ellipse;whiteSpace=wrap;html=1;align=center;" parent="1" vertex="1">
          <mxGeometry x="500" y="53.5" width="73" height="33" as="geometry" />
        </mxCell>
        <mxCell id="MFu_wgSmOD_PK2hefFo5-1" value="Product" style="rounded=0;whiteSpace=wrap;html=1;fontSize=14;" vertex="1" parent="1">
          <mxGeometry x="374" y="786" width="130" height="60" as="geometry" />
        </mxCell>
        <mxCell id="MFu_wgSmOD_PK2hefFo5-3" value="" style="endArrow=none;html=1;entryX=0.5;entryY=0;entryDx=0;entryDy=0;exitX=0.5;exitY=1;exitDx=0;exitDy=0;" edge="1" target="MFu_wgSmOD_PK2hefFo5-10" parent="1" source="MFu_wgSmOD_PK2hefFo5-1">
          <mxGeometry width="50" height="50" relative="1" as="geometry">
            <mxPoint x="464" y="846" as="sourcePoint" />
            <mxPoint x="464" y="906.0000000000002" as="targetPoint" />
          </mxGeometry>
        </mxCell>
        <mxCell id="MFu_wgSmOD_PK2hefFo5-5" value="" style="endArrow=none;html=1;entryX=1;entryY=0;entryDx=0;entryDy=0;exitX=0.5;exitY=1;exitDx=0;exitDy=0;" edge="1" source="MFu_wgSmOD_PK2hefFo5-1" target="MFu_wgSmOD_PK2hefFo5-7" parent="1">
          <mxGeometry width="50" height="50" relative="1" as="geometry">
            <mxPoint x="364" y="816" as="sourcePoint" />
            <mxPoint x="294" y="835.9999999999998" as="targetPoint" />
          </mxGeometry>
        </mxCell>
        <mxCell id="MFu_wgSmOD_PK2hefFo5-6" value="" style="endArrow=none;html=1;entryX=0.5;entryY=0;entryDx=0;entryDy=0;exitX=0.5;exitY=1;exitDx=0;exitDy=0;" edge="1" source="MFu_wgSmOD_PK2hefFo5-1" target="MFu_wgSmOD_PK2hefFo5-9" parent="1">
          <mxGeometry width="50" height="50" relative="1" as="geometry">
            <mxPoint x="434" y="846" as="sourcePoint" />
            <mxPoint x="384" y="909.7600000000002" as="targetPoint" />
          </mxGeometry>
        </mxCell>
        <mxCell id="MFu_wgSmOD_PK2hefFo5-7" value="Id" style="ellipse;whiteSpace=wrap;html=1;align=center;fontStyle=4;" vertex="1" parent="1">
          <mxGeometry x="335" y="884.5" width="70" height="40" as="geometry" />
        </mxCell>
        <mxCell id="MFu_wgSmOD_PK2hefFo5-9" value="Name" style="ellipse;whiteSpace=wrap;html=1;align=center;" vertex="1" parent="1">
          <mxGeometry x="384.5" y="946.5" width="91" height="53" as="geometry" />
        </mxCell>
        <mxCell id="MFu_wgSmOD_PK2hefFo5-10" value="Type" style="ellipse;whiteSpace=wrap;html=1;align=center;" vertex="1" parent="1">
          <mxGeometry x="464" y="886.5" width="91" height="53" as="geometry" />
        </mxCell>
        <mxCell id="MFu_wgSmOD_PK2hefFo5-12" value="Has" style="shape=rhombus;double=1;perimeter=rhombusPerimeter;whiteSpace=wrap;html=1;align=center;rotation=-90;" vertex="1" parent="1">
          <mxGeometry x="355.5" y="413.5" width="120" height="60" as="geometry" />
        </mxCell>
        <mxCell id="MFu_wgSmOD_PK2hefFo5-16" value="" style="endArrow=none;html=1;rounded=0;exitX=1;exitY=0.5;exitDx=0;exitDy=0;entryX=0.5;entryY=1;entryDx=0;entryDy=0;strokeWidth=2;" edge="1" parent="1" source="MFu_wgSmOD_PK2hefFo5-12" target="VHmfQ2xXBK9ZEP8sxJjX-1">
          <mxGeometry relative="1" as="geometry">
            <mxPoint x="366" y="309" as="sourcePoint" />
            <mxPoint x="403" y="230" as="targetPoint" />
          </mxGeometry>
        </mxCell>
        <mxCell id="MFu_wgSmOD_PK2hefFo5-17" value="1" style="resizable=0;html=1;whiteSpace=wrap;align=right;verticalAlign=bottom;" connectable="0" vertex="1" parent="MFu_wgSmOD_PK2hefFo5-16">
          <mxGeometry x="1" relative="1" as="geometry">
            <mxPoint x="-15" y="156" as="offset" />
          </mxGeometry>
        </mxCell>
        <mxCell id="MFu_wgSmOD_PK2hefFo5-18" value="" style="endArrow=none;html=1;rounded=0;exitX=0.5;exitY=0;exitDx=0;exitDy=0;strokeWidth=2;entryX=0;entryY=0.5;entryDx=0;entryDy=0;" edge="1" parent="1" source="MFu_wgSmOD_PK2hefFo5-1" target="MFu_wgSmOD_PK2hefFo5-12">
          <mxGeometry relative="1" as="geometry">
            <mxPoint x="611" y="608" as="sourcePoint" />
            <mxPoint x="420" y="501" as="targetPoint" />
          </mxGeometry>
        </mxCell>
        <mxCell id="MFu_wgSmOD_PK2hefFo5-19" value="N" style="resizable=0;html=1;whiteSpace=wrap;align=right;verticalAlign=bottom;" connectable="0" vertex="1" parent="MFu_wgSmOD_PK2hefFo5-18">
          <mxGeometry x="1" relative="1" as="geometry">
            <mxPoint x="-3" y="18" as="offset" />
          </mxGeometry>
        </mxCell>
        <mxCell id="MFu_wgSmOD_PK2hefFo5-23" value="Product Id" style="ellipse;whiteSpace=wrap;html=1;align=center;fontStyle=4;" vertex="1" parent="1">
          <mxGeometry x="-257" y="750" width="70" height="40" as="geometry" />
        </mxCell>
        <mxCell id="MFu_wgSmOD_PK2hefFo5-24" value="" style="endArrow=none;html=1;entryX=1;entryY=0.5;entryDx=0;entryDy=0;exitX=0;exitY=0.75;exitDx=0;exitDy=0;" edge="1" parent="1" source="VHmfQ2xXBK9ZEP8sxJjX-54" target="MFu_wgSmOD_PK2hefFo5-23">
          <mxGeometry width="50" height="50" relative="1" as="geometry">
            <mxPoint x="-52" y="730" as="sourcePoint" />
            <mxPoint x="-177" y="720" as="targetPoint" />
          </mxGeometry>
        </mxCell>
        <mxCell id="MFu_wgSmOD_PK2hefFo5-25" value="Product Id" style="ellipse;whiteSpace=wrap;html=1;align=center;fontStyle=4;" vertex="1" parent="1">
          <mxGeometry x="742" y="858" width="70" height="40" as="geometry" />
        </mxCell>
        <mxCell id="MFu_wgSmOD_PK2hefFo5-26" value="" style="endArrow=none;html=1;" edge="1" parent="1" source="VHmfQ2xXBK9ZEP8sxJjX-32" target="MFu_wgSmOD_PK2hefFo5-25">
          <mxGeometry width="50" height="50" relative="1" as="geometry">
            <mxPoint x="776" y="727" as="sourcePoint" />
            <mxPoint x="637" y="781" as="targetPoint" />
          </mxGeometry>
        </mxCell>
        <mxCell id="MFu_wgSmOD_PK2hefFo5-27" value="Has" style="shape=rhombus;double=1;perimeter=rhombusPerimeter;whiteSpace=wrap;html=1;align=center;rotation=15;" vertex="1" parent="1">
          <mxGeometry x="174" y="726" width="120" height="60" as="geometry" />
        </mxCell>
        <mxCell id="MFu_wgSmOD_PK2hefFo5-44" value="Has" style="shape=rhombus;double=1;perimeter=rhombusPerimeter;whiteSpace=wrap;html=1;align=center;rotation=-15;" vertex="1" parent="1">
          <mxGeometry x="570" y="707" width="120" height="60" as="geometry" />
        </mxCell>
        <mxCell id="MFu_wgSmOD_PK2hefFo5-45" value="" style="endArrow=none;html=1;rounded=0;exitX=0;exitY=0.75;exitDx=0;exitDy=0;entryX=1;entryY=0.5;entryDx=0;entryDy=0;strokeWidth=2;" edge="1" parent="1" source="VHmfQ2xXBK9ZEP8sxJjX-32" target="MFu_wgSmOD_PK2hefFo5-44">
          <mxGeometry relative="1" as="geometry">
            <mxPoint x="752" y="730" as="sourcePoint" />
            <mxPoint x="371" y="763" as="targetPoint" />
          </mxGeometry>
        </mxCell>
        <mxCell id="MFu_wgSmOD_PK2hefFo5-46" value="1" style="resizable=0;html=1;whiteSpace=wrap;align=right;verticalAlign=bottom;" connectable="0" vertex="1" parent="MFu_wgSmOD_PK2hefFo5-45">
          <mxGeometry x="1" relative="1" as="geometry">
            <mxPoint x="10" as="offset" />
          </mxGeometry>
        </mxCell>
        <mxCell id="MFu_wgSmOD_PK2hefFo5-47" value="" style="endArrow=none;html=1;rounded=0;exitX=0;exitY=0.5;exitDx=0;exitDy=0;entryX=1;entryY=0.25;entryDx=0;entryDy=0;strokeWidth=2;" edge="1" parent="1" source="MFu_wgSmOD_PK2hefFo5-44" target="MFu_wgSmOD_PK2hefFo5-1">
          <mxGeometry relative="1" as="geometry">
            <mxPoint x="776" y="727" as="sourcePoint" />
            <mxPoint x="698" y="731" as="targetPoint" />
          </mxGeometry>
        </mxCell>
        <mxCell id="MFu_wgSmOD_PK2hefFo5-48" value="0" style="resizable=0;html=1;whiteSpace=wrap;align=right;verticalAlign=bottom;" connectable="0" vertex="1" parent="MFu_wgSmOD_PK2hefFo5-47">
          <mxGeometry x="1" relative="1" as="geometry">
            <mxPoint x="62" y="-48" as="offset" />
          </mxGeometry>
        </mxCell>
        <mxCell id="MFu_wgSmOD_PK2hefFo5-50" value="" style="endArrow=none;html=1;rounded=0;exitX=0;exitY=0.25;exitDx=0;exitDy=0;strokeWidth=2;" edge="1" parent="1" source="MFu_wgSmOD_PK2hefFo5-1" target="MFu_wgSmOD_PK2hefFo5-27">
          <mxGeometry relative="1" as="geometry">
            <mxPoint x="582" y="763" as="sourcePoint" />
            <mxPoint x="514" y="811" as="targetPoint" />
          </mxGeometry>
        </mxCell>
        <mxCell id="MFu_wgSmOD_PK2hefFo5-51" value="0" style="resizable=0;html=1;whiteSpace=wrap;align=right;verticalAlign=bottom;" connectable="0" vertex="1" parent="MFu_wgSmOD_PK2hefFo5-50">
          <mxGeometry x="1" relative="1" as="geometry">
            <mxPoint x="27" y="2" as="offset" />
          </mxGeometry>
        </mxCell>
        <mxCell id="MFu_wgSmOD_PK2hefFo5-53" value="" style="endArrow=none;html=1;rounded=0;exitX=0;exitY=0.5;exitDx=0;exitDy=0;strokeWidth=2;entryX=0.999;entryY=0.396;entryDx=0;entryDy=0;entryPerimeter=0;" edge="1" parent="1" source="MFu_wgSmOD_PK2hefFo5-27" target="VHmfQ2xXBK9ZEP8sxJjX-54">
          <mxGeometry relative="1" as="geometry">
            <mxPoint x="384" y="811" as="sourcePoint" />
            <mxPoint x="296" y="783" as="targetPoint" />
          </mxGeometry>
        </mxCell>
        <mxCell id="MFu_wgSmOD_PK2hefFo5-54" value="0" style="resizable=0;html=1;whiteSpace=wrap;align=right;verticalAlign=bottom;" connectable="0" vertex="1" parent="MFu_wgSmOD_PK2hefFo5-53">
          <mxGeometry x="1" relative="1" as="geometry">
            <mxPoint x="27" y="2" as="offset" />
          </mxGeometry>
        </mxCell>
      </root>
    </mxGraphModel>
  </diagram>
</mxfile>
